<svg id="visual" viewBox="0 0 1920 1080" width="1920" height="1080" xmlns="http://www.w3.org/2000/svg" xmlns:xlink="http://www.w3.org/1999/xlink" version="1.1"><rect x="0" y="0" width="1920" height="1080" fill="#001220"></rect><defs><linearGradient id="grad1_0" x1="43.8%" y1="100%" x2="100%" y2="0%"><stop offset="14.444444444444446%" stop-color="#001220" stop-opacity="1"></stop><stop offset="85.55555555555554%" stop-color="#001220" stop-opacity="1"></stop></linearGradient></defs><defs><linearGradient id="grad2_0" x1="0%" y1="100%" x2="56.3%" y2="0%"><stop offset="14.444444444444446%" stop-color="#001220" stop-opacity="1"></stop><stop offset="85.55555555555554%" stop-color="#001220" stop-opacity="1"></stop></linearGradient></defs><g transform="translate(1920, 1080)"><path d="M-972 0C-885.6 -94.6 -799.2 -189.3 -766.8 -317.6C-734.4 -446 -756 -608.1 -687.3 -687.3C-618.6 -766.5 -459.5 -762.8 -329.9 -796.4C-200.3 -830 -100.1 -901 0 -972L0 0Z" fill="#FBAE3C"></path></g><g transform="translate(0, 0)"><path d="M972 0C912.1 114 852.3 228 796.4 329.9C740.5 431.7 688.6 521.4 623 623C557.4 724.5 478.1 837.9 372 898C265.9 958.2 132.9 965.1 0 972L0 0Z" fill="#FBAE3C"></path></g></svg>